<svg width="116" height="133" xmlns="http://www.w3.org/2000/svg" xmlns:xlink="http://www.w3.org/1999/xlink" xml:space="preserve" overflow="hidden"><g><path d="M0 24.8571C0 20.2741 3.70268 16.5714 8.28571 16.5714L107.714 16.5714C112.297 16.5714 116 20.2741 116 24.8571 116 29.4402 112.297 33.1429 107.714 33.1429L8.28571 33.1429C3.70268 33.1429 0 29.4402 0 24.8571ZM0 66.2857C0 61.7027 3.70268 58 8.28571 58L107.714 58C112.297 58 116 61.7027 116 66.2857 116 70.8688 112.297 74.5714 107.714 74.5714L8.28571 74.5714C3.70268 74.5714 0 70.8688 0 66.2857ZM116 107.714C116 112.297 112.297 116 107.714 116L8.28571 116C3.70268 116 0 112.297 0 107.714 0 103.131 3.70268 99.4286 8.28571 99.4286L107.714 99.4286C112.297 99.4286 116 103.131 116 107.714Z" fill="#FFFFFF" transform="scale(1 1.00323)"/></g></svg>