<svg width="114" height="114" xmlns="http://www.w3.org/2000/svg" xmlns:xlink="http://www.w3.org/1999/xlink" xml:space="preserve" overflow="hidden"><g><path d="M111.907 62.032C114.69 59.2488 114.69 54.7289 111.907 51.9457L83.407 23.4457C80.6238 20.6625 76.1039 20.6625 73.3207 23.4457 70.5375 26.2289 70.5375 30.7488 73.3207 33.532L89.6637 49.875 42.75 49.875C38.809 49.875 35.625 53.059 35.625 57 35.625 60.941 38.809 64.125 42.75 64.125L89.6637 64.125 73.3207 80.468C70.5375 83.2512 70.5375 87.7711 73.3207 90.5543 76.1039 93.3375 80.6238 93.3375 83.407 90.5543L111.907 62.0543ZM35.625 21.375C39.566 21.375 42.75 18.191 42.75 14.25 42.75 10.309 39.566 7.125 35.625 7.125L21.375 7.125C9.57422 7.125 0 16.6992 0 28.5L0 85.5C0 97.3008 9.57422 106.875 21.375 106.875L35.625 106.875C39.566 106.875 42.75 103.691 42.75 99.75 42.75 95.809 39.566 92.625 35.625 92.625L21.375 92.625C17.434 92.625 14.25 89.441 14.25 85.5L14.25 28.5C14.25 24.559 17.434 21.375 21.375 21.375L35.625 21.375Z" fill="#FFFFFF"/></g></svg>