<svg width="152" height="174" xmlns="http://www.w3.org/2000/svg" xmlns:xlink="http://www.w3.org/1999/xlink" xml:space="preserve" overflow="hidden"><defs><clipPath id="clip0"><rect x="0" y="0" width="152" height="174"/></clipPath></defs><g clip-path="url(#clip0)"><path d="M76 86.8571C99.9849 86.8571 119.429 67.4135 119.429 43.4286 119.429 19.4436 99.9849-9.64308e-15 76-9.64308e-15 52.0151-9.64308e-15 32.5714 19.4436 32.5714 43.4286 32.5714 67.4135 52.0151 86.8571 76 86.8571ZM60.4946 103.143C27.075 103.143 0 130.218 0 163.637 0 169.202 4.5125 173.714 10.0768 173.714L141.923 173.714C147.488 173.714 152 169.202 152 163.637 152 130.218 124.925 103.143 91.5054 103.143L60.4946 103.143Z" fill="#FFFFFF" transform="scale(1 1.00164)"/></g></svg>